<svg width="11" height="21" viewBox="0 0 11 21" fill="none" xmlns="http://www.w3.org/2000/svg">
<path d="M0.272902 19.3132C0.182683 19.4087 0.112154 19.521 0.0653381 19.6437C0.0185226 19.7665 -0.00366189 19.8972 5.24521e-05 20.0285C0.00376679 20.1598 0.0333069 20.2891 0.0869856 20.409C0.140664 20.5289 0.21743 20.637 0.312901 20.7272C0.408372 20.8175 0.520679 20.888 0.643408 20.9348C0.766137 20.9816 0.896884 21.0038 1.02819 21.0001C1.15949 20.9964 1.28877 20.9668 1.40866 20.9132C1.52854 20.8595 1.63668 20.7827 1.7269 20.6872L10.2269 11.6872C10.4024 11.5016 10.5002 11.2558 10.5002 11.0002C10.5002 10.7447 10.4024 10.4989 10.2269 10.3132L1.7269 1.31224C1.63728 1.21468 1.52916 1.1359 1.40884 1.08047C1.28851 1.02505 1.15837 0.994084 1.02598 0.98938C0.893582 0.984676 0.761572 1.00633 0.637615 1.05307C0.513658 1.09982 0.400225 1.17073 0.303905 1.26168C0.207584 1.35264 0.130296 1.46182 0.0765295 1.5829C0.0227633 1.70398 -0.00640909 1.83453 -0.00929356 1.96698C-0.012178 2.09942 0.0112827 2.23112 0.0597267 2.35443C0.108171 2.47773 0.180632 2.59018 0.272902 2.68524L8.1249 11.0002L0.272902 19.3132Z" fill="white"/>
</svg>
